{
	"asset":{
		"generator":"Khronos glTF Blender I/O v3.6.27",
		"version":"2.0"
	},
	"scene":0,
	"scenes":[
		{
			"name":"Scene",
			"nodes":[
				0
			]
		}
	],
	"nodes":[
		{
			"mesh":0,
			"name":"defaultobject.353",
			"rotation":[
				0.70710688829422,
				0,
				0,
				0.7071066498756409
			],
			"scale":[
				2.8580238819122314,
				2.8580238819122314,
				2.8580238819122314
			],
			"translation":[
				0.00046959499013610184,
				0.035208139568567276,
				0.000488101999508217
			]
		}
	],
	"materials":[
		{
			"doubleSided":true,
			"name":"Material.001",
			"pbrMetallicRoughness":{
				"baseColorFactor":[
					0.08001147210597992,
					0.07696516066789627,
					0.07924260199069977,
					1
				],
				"metallicFactor":0.6456692814826965,
				"roughnessFactor":0.5
			}
		}
	],
	"meshes":[
		{
			"name":"meshId8_name.073",
			"primitives":[
				{
					"attributes":{
						"POSITION":0,
						"NORMAL":1,
						"TEXCOORD_0":2,
						"TEXCOORD_1":3,
						"TEXCOORD_2":4,
						"TEXCOORD_3":5,
						"TEXCOORD_4":6,
						"TEXCOORD_5":7,
						"TEXCOORD_6":8,
						"TEXCOORD_7":9
					},
					"indices":10,
					"material":0
				}
			]
		}
	],
	"accessors":[
		{
			"bufferView":0,
			"componentType":5126,
			"count":71752,
			"max":[
				0.3073176145553589,
				0.20456700026988983,
				0.13468749821186066
			],
			"min":[
				-0.20340800285339355,
				-0.20130090415477753,
				-0.02063583955168724
			],
			"type":"VEC3"
		},
		{
			"bufferView":1,
			"componentType":5126,
			"count":71752,
			"type":"VEC3"
		},
		{
			"bufferView":2,
			"componentType":5126,
			"count":71752,
			"type":"VEC2"
		},
		{
			"bufferView":3,
			"componentType":5126,
			"count":71752,
			"type":"VEC2"
		},
		{
			"bufferView":4,
			"componentType":5126,
			"count":71752,
			"type":"VEC2"
		},
		{
			"bufferView":5,
			"componentType":5126,
			"count":71752,
			"type":"VEC2"
		},
		{
			"bufferView":6,
			"componentType":5126,
			"count":71752,
			"type":"VEC2"
		},
		{
			"bufferView":7,
			"componentType":5126,
			"count":71752,
			"type":"VEC2"
		},
		{
			"bufferView":8,
			"componentType":5126,
			"count":71752,
			"type":"VEC2"
		},
		{
			"bufferView":9,
			"componentType":5126,
			"count":71752,
			"type":"VEC2"
		},
		{
			"bufferView":10,
			"componentType":5125,
			"count":296181,
			"type":"SCALAR"
		}
	],
	"bufferViews":[
		{
			"buffer":0,
			"byteLength":861024,
			"byteOffset":0,
			"target":34962
		},
		{
			"buffer":0,
			"byteLength":861024,
			"byteOffset":861024,
			"target":34962
		},
		{
			"buffer":0,
			"byteLength":574016,
			"byteOffset":1722048,
			"target":34962
		},
		{
			"buffer":0,
			"byteLength":574016,
			"byteOffset":2296064,
			"target":34962
		},
		{
			"buffer":0,
			"byteLength":574016,
			"byteOffset":2870080,
			"target":34962
		},
		{
			"buffer":0,
			"byteLength":574016,
			"byteOffset":3444096,
			"target":34962
		},
		{
			"buffer":0,
			"byteLength":574016,
			"byteOffset":4018112,
			"target":34962
		},
		{
			"buffer":0,
			"byteLength":574016,
			"byteOffset":4592128,
			"target":34962
		},
		{
			"buffer":0,
			"byteLength":574016,
			"byteOffset":5166144,
			"target":34962
		},
		{
			"buffer":0,
			"byteLength":574016,
			"byteOffset":5740160,
			"target":34962
		},
		{
			"buffer":0,
			"byteLength":1184724,
			"byteOffset":6314176,
			"target":34963
		}
	],
	"buffers":[
		{
			"byteLength":7498900,
			"uri":"ttbody.bin"
		}
	]
}
