{
	"asset":{
		"generator":"Khronos glTF Blender I/O v3.6.27",
		"version":"2.0"
	},
	"scene":0,
	"scenes":[
		{
			"name":"Scene",
			"nodes":[
				0
			]
		}
	],
	"nodes":[
		{
			"mesh":0,
			"name":"defaultobject",
			"rotation":[
				0.70710688829422,
				0,
				0,
				0.7071066498756409
			],
			"scale":[
				2.8580238819122314,
				2.8580238819122314,
				2.8580238819122314
			],
			"translation":[
				0.0003423089801799506,
				-0.017717089504003525,
				0.0006564559880644083
			]
		}
	],
	"materials":[
		{
			"doubleSided":true,
			"name":"Material.002",
			"pbrMetallicRoughness":{
				"baseColorTexture":{
					"index":0
				},
				"metallicFactor":0,
				"roughnessFactor":0.5
			}
		}
	],
	"meshes":[
		{
			"name":"meshId0_name",
			"primitives":[
				{
					"attributes":{
						"POSITION":0,
						"NORMAL":1,
						"TEXCOORD_0":2
					},
					"indices":3,
					"material":0
				}
			]
		}
	],
	"textures":[
		{
			"sampler":0,
			"source":0
		}
	],
	"images":[
		{
			"mimeType":"image/jpeg",
			"name":"1004_albedo",
			"uri":"1004_albedo.jpg"
		}
	],
	"accessors":[
		{
			"bufferView":0,
			"componentType":5126,
			"count":7134,
			"max":[
				0.18844610452651978,
				0.18850010633468628,
				0.03023790940642357
			],
			"min":[
				-0.18845319747924805,
				-0.18839959800243378,
				-0.004021226894110441
			],
			"type":"VEC3"
		},
		{
			"bufferView":1,
			"componentType":5126,
			"count":7134,
			"type":"VEC3"
		},
		{
			"bufferView":2,
			"componentType":5126,
			"count":7134,
			"type":"VEC2"
		},
		{
			"bufferView":3,
			"componentType":5123,
			"count":23184,
			"type":"SCALAR"
		}
	],
	"bufferViews":[
		{
			"buffer":0,
			"byteLength":85608,
			"byteOffset":0,
			"target":34962
		},
		{
			"buffer":0,
			"byteLength":85608,
			"byteOffset":85608,
			"target":34962
		},
		{
			"buffer":0,
			"byteLength":57072,
			"byteOffset":171216,
			"target":34962
		},
		{
			"buffer":0,
			"byteLength":46368,
			"byteOffset":228288,
			"target":34963
		}
	],
	"samplers":[
		{
			"magFilter":9729,
			"minFilter":9987
		}
	],
	"buffers":[
		{
			"byteLength":274656,
			"uri":"ttbase.bin"
		}
	]
}
